<svg id="Calque_2" data-name="Calque 2" xmlns="http://www.w3.org/2000/svg" viewBox="0 0 1290.36 448.73"><defs><style>.cls-1{fill:#fff;}.cls-1,.cls-3,.cls-4{stroke:#ff8500;stroke-miterlimit:10;}.cls-2,.cls-4{fill:#7c7c7c;}.cls-3{fill:none;}</style></defs><title>Arme1</title><polygon class="cls-1" points="65.83 269.5 65.83 221.5 78.5 208.17 143.16 208.17 65.83 269.5"/><polygon class="cls-2" points="1289.83 101.5 1287.16 149.5 1065.16 149.5 1074.5 165.5 1011.16 166.83 1001.83 149.5 890.5 149.5 896.5 190.83 883.83 191.5 876.5 179.5 812.5 179.5 689.83 255.5 689.83 263.5 683.16 273.5 660.5 274.17 658.5 238.83 642.83 252.83 638.5 254.83 663.83 402.83 670.5 407.5 685.83 403.5 685.83 420.17 589.16 435.5 567.83 418.83 561.83 396.83 561.83 391.5 547.16 275.5 541.16 278.17 547.16 334.83 537.16 338.83 475.16 301.5 403.83 300.17 391.16 306.83 391.16 333.5 378.5 340.83 371.83 350.83 359.83 439.5 349.16 448.17 265.83 422.83 256.5 412.83 253.83 404.17 306.5 261.5 329.16 250.83 333.83 242.83 333.83 226 325.16 216.83 302.5 214.17 283.16 179.5 253.16 179.5 223.16 214.83 176.5 214.83 65.83 312.83 49.83 387.5 17.83 371.5 3.83 315.5 0.5 216.83 0.5 182.83 0.5 136.17 13.16 126.83 305.83 126.83 361.16 74.17 388.5 72.83 412.5 68.83 447.83 70.17 456.5 54.83 463.16 55.5 467.83 48.83 499.16 48.83 502.5 55.5 556.5 56.83 565.83 45.5 565.83 0.5 575.83 0.5 576.5 67.5 983.16 67.5 987.83 67.5 1002.5 76.17 1024.5 76.17 1037.16 101.5 1289.83 101.5"/><polygon class="cls-3" points="17.83 371.5 49.83 387.5 65.83 312.83 176.5 214.83 223.16 214.83 253.16 179.5 283.16 179.5 302.5 214.17 325.16 216.83 333.83 226 333.83 242.83 329.16 250.83 306.5 261.5 253.83 404.17 256.5 412.83 265.83 422.83 349.16 448.17 359.83 439.5 371.83 350.83 378.5 340.83 391.16 333.5 391.16 306.83 403.83 300.17 475.16 301.5 537.16 338.83 547.16 334.83 541.16 278.17 547.16 275.5 561.83 391.5 561.83 396.83 567.83 418.83 589.16 435.5 685.83 420.17 685.83 403.5 670.5 407.5 663.83 402.83 638.5 254.83 642.83 252.83 658.5 238.83 660.5 274.17 683.16 273.5 689.83 263.5 689.83 255.5 812.5 179.5 876.5 179.5 883.83 191.5 896.5 190.83 890.5 149.5 1001.83 149.5 1011.16 166.83 1074.5 165.5 1065.16 149.5 1287.16 149.5 1289.83 101.5 1037.16 101.5 1024.5 76.17 1002.5 76.17 987.83 67.5 983.16 67.5 576.5 67.5 575.83 0.5 565.83 0.5 565.83 45.5 556.5 56.83 502.5 55.5 499.16 48.83 467.83 48.83 463.16 55.5 456.5 54.83 447.83 70.17 412.5 68.83 388.5 72.83 361.16 74.17 305.83 126.83 13.16 126.83 0.5 136.17 0.5 182.83 0.5 216.83 3.83 315.5 17.83 371.5"/><polygon class="cls-1" points="428.5 238.83 439.16 224.33 469.16 224.33 478.5 242.17 478.5 257.5 465.83 276.17 442.5 276.17 428.5 260.17 428.5 238.83"/><polygon class="cls-1" points="580.5 402.83 597.83 422.17 645.16 412.5 642.83 396.17 580.5 402.83"/><polygon class="cls-1" points="691.83 184.17 691.83 226 767.83 184.17 691.83 184.17"/><circle class="cls-1" cx="401.83" cy="237.17" r="5.58"/><circle class="cls-1" cx="403.83" cy="262.17" r="5.58"/><line class="cls-3" x1="576.5" y1="67.5" x2="447.83" y2="70.17"/><polyline class="cls-3" points="890.5 149.5 661.83 149.5 658.5 238.83"/><polygon class="cls-3" points="638.5 254.83 626.16 163.83 531.5 178.5 547.16 275.5 638.5 254.83"/><polyline class="cls-3" points="661.83 149.5 648.83 149.5 645.16 78.17 1002.5 76.17"/><polyline class="cls-3" points="302.5 214.17 302.5 209.83 316.83 208.17 336.16 211.17 347.83 222.83 401.83 289.83 403.83 300.17"/><line class="cls-3" x1="567.24" y1="416.66" x2="590.21" y2="413.67"/><line class="cls-3" x1="644.02" y1="404.5" x2="663.83" y2="402.83"/><line class="cls-3" x1="670.5" y1="407.5" x2="670.5" y2="422.6"/><line class="cls-3" x1="561.83" y1="396.83" x2="660.18" y2="381.53"/><polyline class="cls-3" points="302.5 209.83 283.16 179.5 313.83 177.5 313.83 126.83 305.83 126.83"/><polyline class="cls-3" points="316.83 208.17 308.83 191.5 283.16 179.5"/><line class="cls-3" x1="508.83" y1="191" x2="308.83" y2="191.5"/><polyline class="cls-3" points="507.33 184.17 362.5 184.17 308.83 184.17 308.83 177.83 308.83 126.83"/><path class="cls-3" d="M365.33,73.67" transform="translate(-4.17 0.5)"/><line class="cls-3" x1="362.5" y1="184.17" x2="361.16" y2="74.17"/><polyline class="cls-3" points="347.83 86.86 361.83 95 518.33 95 537.16 95 660.18 90.93 660.18 74.17 519.83 73.48 388.5 72.83"/><polyline class="cls-3" points="519.83 184.17 518.33 95 519.83 73.48"/><line class="cls-3" x1="537.16" y1="95" x2="537.16" y2="74.17"/><line class="cls-3" x1="537.16" y1="177.62" x2="537.16" y2="92.5"/><polygon class="cls-3" points="391.16 177.62 387.75 120.5 413.33 120.5 430.83 177.62 391.16 177.62"/><polygon class="cls-3" points="403.83 146.5 600.83 146.5 613.83 126.83 403.83 126.83 403.83 146.5"/><polygon class="cls-3" points="403.83 151.5 403.83 170.5 571.83 170.5 582.58 151.5 403.83 151.5"/><line class="cls-3" x1="1037.16" y1="101.5" x2="1065.16" y2="149.5"/><polyline class="cls-3" points="985.33 67.5 985.33 76.26 985.33 112.83 1001.83 149.5"/><line class="cls-3" x1="502.5" y1="55.5" x2="463.16" y2="55.5"/><line class="cls-3" x1="565.83" y1="45.5" x2="576.28" y2="45.5"/><line class="cls-3" x1="556.5" y1="56.83" x2="556.5" y2="73.48"/><line class="cls-3" x1="565.83" y1="8" x2="576.5" y2="8"/><polyline class="cls-3" points="308.83 136.67 55.83 136.67 29.83 136.67 16.33 136.67 10.83 143.5 10.83 184.17 10.83 216.83 10.83 315.5 21.33 358 43.33 372 56.83 309.5 173.83 205 219.33 204.5 249.83 170.5 308.83 170.5"/><polyline class="cls-3" points="298.5 126.83 291.83 135.06 249.83 170.5 253.16 179.5"/><polyline class="cls-3" points="249.83 170.5 218.33 179.5 58.33 184.17 32.83 184.17 10.83 184.17 0.5 182.83"/><line class="cls-3" x1="0.5" y1="136.17" x2="10.83" y2="143.5"/><line class="cls-3" x1="13.16" y1="126.83" x2="16.33" y2="136.67"/><polyline class="cls-3" points="29.33 126.83 29.83 136.67 32.83 184.17 32.83 216.83 21.33 358 17.83 371.5"/><line class="cls-3" x1="3.83" y1="315.5" x2="10.83" y2="315.5"/><polyline class="cls-3" points="0.5 216.83 10.83 216.83 32.83 216.83 58.83 216.83 58.33 184.17 55.83 136.67 52.83 126.83"/><polyline class="cls-3" points="49.83 387.5 43.33 372 58.83 216.83"/><polygon class="cls-4" points="73.83 205 155.33 205 143.16 214 58.83 284 58.83 219.67 73.83 205"/><polyline class="cls-3" points="73.83 205 78.5 208.17 65.83 221.5 58.83 219.67"/><line class="cls-3" x1="176.5" y1="214.83" x2="173.83" y2="205"/><polyline class="cls-3" points="58.83 284 65.83 269.5 135.81 214 143.16 214 173.83 205 218.33 179.5 255.37 144 265.83 136.67 274.16 126.83"/><polyline class="cls-3" points="57.97 177.33 214.83 174 263.83 146.5 56.19 143.5"/><polyline class="cls-3" points="302.5 209.83 328.33 215 337.45 223.58 336.83 244.17 332.83 254.17 310.83 265 255.37 409.17 275.33 404.5 323.33 269.5 341.33 262.17 346.83 250.25 347.83 222.83"/><polyline class="cls-3" points="275.33 404.5 283.16 414.5 265.83 422.83"/><polyline class="cls-3" points="283.16 414.5 344.33 434.5 349.16 448.17"/><polyline class="cls-3" points="344.33 434.5 353.16 428 359.83 439.5"/><polyline class="cls-3" points="371.83 350.83 367.33 341.5 353.16 428"/><polyline class="cls-3" points="401.83 289.83 384.33 305.5 383.33 326.5 391.16 333.5"/><polyline class="cls-3" points="401.83 289.83 474.83 292.17 531.5 325.5 533.83 325.5 523.33 272 522.33 264.5 514.33 226 508.83 191 507.33 184.17 504.83 170.5 519.83 184.17 527.83 224.33 538.33 267.75 541.16 278.17"/><line class="cls-3" x1="537.16" y1="338.83" x2="531.5" y2="325.5"/><line class="cls-3" x1="547.16" y1="334.83" x2="533.83" y2="325.5"/><polygon class="cls-3" points="383.33 260 383.33 238.83 398.25 219.67 428.5 219.67 471.5 219.67 483.33 242.83 478.5 265.5 465.33 279.5 396.25 279.5 383.33 260"/><polygon class="cls-3" points="428.5 224.33 416.83 238.83 416.83 262.17 428.5 276.17 435.33 276.17 422.33 259.5 422.33 238.83 433.33 224.33 428.5 224.33"/><line class="cls-3" x1="408.98" y1="260" x2="428.5" y2="260.17"/><line class="cls-3" x1="407.16" y1="238.83" x2="428.5" y2="238.83"/><line class="cls-3" x1="394.61" y1="224.33" x2="439.16" y2="224.33"/><line class="cls-3" x1="514.33" y1="226" x2="474.73" y2="226"/><polyline class="cls-3" points="336.83 223.54 348.53 222.83 394.62 224.33"/><polyline class="cls-3" points="384.33 305.5 346.83 250.25 336.83 245.5 333.83 242.83"/><polyline class="cls-3" points="306.5 261.5 310.83 265 323.33 269.5 367.33 341.5 376.83 332 378.5 340.83"/><polyline class="cls-3" points="329.16 250.83 332.83 254.17 341.33 262.17 383.33 326.5 376.83 332"/><polyline class="cls-3" points="522.33 264.5 538.33 267.75 638.5 242.83 642.83 242.75 642.83 252.83"/><polygon class="cls-1" points="143.16 208.17 78.5 208.17 65.83 221.5 65.83 269.5 135.81 214 143.16 208.17"/></svg>